<?xml version="1.0" encoding="UTF-8" standalone="no"?>
<svg
   xmlns:dc="http://purl.org/dc/elements/1.1/"
   xmlns:cc="http://creativecommons.org/ns#"
   xmlns:rdf="http://www.w3.org/1999/02/22-rdf-syntax-ns#"
   xmlns:svg="http://www.w3.org/2000/svg"
   xmlns="http://www.w3.org/2000/svg"
   xmlns:sodipodi="http://sodipodi.sourceforge.net/DTD/sodipodi-0.dtd"
   xmlns:inkscape="http://www.inkscape.org/namespaces/inkscape"
   width="455"
   height="455"
   overflow="hidden"
   version="1.1"
   id="svg969"
   sodipodi:docname="Imagen12.svg"
   inkscape:version="1.0 (4035a4fb49, 2020-05-01)">
  <metadata
     id="metadata973">
    <rdf:RDF>
      <cc:Work
         rdf:about="">
        <dc:format>image/svg+xml</dc:format>
        <dc:type
           rdf:resource="http://purl.org/dc/dcmitype/StillImage" />
        <dc:title></dc:title>
      </cc:Work>
    </rdf:RDF>
  </metadata>
  <sodipodi:namedview
     inkscape:document-rotation="0"
     pagecolor="#ffffff"
     bordercolor="#666666"
     borderopacity="1"
     objecttolerance="10"
     gridtolerance="10"
     guidetolerance="10"
     inkscape:pageopacity="0"
     inkscape:pageshadow="2"
     inkscape:window-width="1920"
     inkscape:window-height="1017"
     id="namedview971"
     showgrid="false"
     inkscape:zoom="1.6153846"
     inkscape:cx="204.87086"
     inkscape:cy="306.98665"
     inkscape:window-x="-8"
     inkscape:window-y="-8"
     inkscape:window-maximized="1"
     inkscape:current-layer="svg969" />
  <defs
     id="defs951">
    <clipPath
       id="clip0">
      <rect
         x="169"
         y="115"
         width="455"
         height="455"
         id="rect948" />
    </clipPath>
  </defs>
  <path
     id="path953"
     d="m 375.832,355.206 c -10.116,-18.454 -26.461,-42.739 -47.381,-70.426 -2.41,3.511 -5.024,6.884 -7.834,10.107 17.715,25.151 16.302,29.894 13.283,32.549 -3.444,3.027 -8.522,0.326 -15.599,-5.015 -1.648,-1.244 -3.444,-2.674 -5.382,-4.286 -5.038,-4.191 -11.044,-9.614 -17.935,-16.199 -19.49,-18.625 -44.022,-44.573 -69.075,-73.065 -25.053,-28.492 -47.648,-56.143 -63.626,-77.856 -1.141,-1.551 -2.227,-3.047 -3.284,-4.514 -0.122,-0.15 -0.238,-0.303 -0.333,-0.467 -6.016,-8.374 -10.633,-15.356 -13.716,-20.764 -4.392,-7.703 -6.422,-13.085 -2.978,-16.112 3.256,-2.865 7.991,-0.437 14.57,4.412 4.821,3.552 10.984,8.78 18.321,15.525 3.641,-2.416 7.409,-4.616 11.292,-6.581 C 161.146,97.994 138.695,78.235 121.043,65.23 94.321,45.54 89.445,49.327 89.4,49.367 c -0.074,0.066 -7.028,7.152 28.061,60.268 23.936,36.237 59.266,81.382 99.483,127.118 40.215,45.738 80.469,86.555 113.345,114.931 48.191,41.607 56.108,35.604 56.18,35.54 0.046,-0.042 4.49,-4.417 -10.637,-32.018 z" />
  <path
     style="stroke-width:1.0175"
     id="path959"
     d="m 236.41274,167.40383 c -0.23515,0.0413 -0.46205,0.10117 -0.69291,0.15001 -1.89506,0.40089 -3.71527,1.03286 -5.45763,1.89598 -4.12701,2.04694 -18.42513,13.89549 -21.73591,17.09889 l 27.13344,47.12773 50.0329,35.89053 c 1.80532,-1.67074 7.79862,-14.61435 9.34776,-16.56259 1.55712,-1.95788 2.93091,-4.03436 3.98581,-6.31225 0.36455,-0.78856 0.69527,-1.60118 0.97656,-2.44251 0.49503,-1.47492 0.84335,-2.98066 0.82046,-4.56388 -0.004,-0.51215 -0.0507,-1.00135 -0.1178,-1.4759 -0.41117,-2.89282 -1.93507,-5.09332 -4.67982,-6.51313 -1.94342,-1.00432 -3.98362,-1.66642 -6.1011,-2.07284 -1.0268,-0.19597 -2.04398,-0.43885 -3.06175,-0.68594 -0.40533,-0.0985 -0.80773,-0.2372 -1.19327,-0.40448 -0.8056,-0.35141 -1.24807,-1.00473 -1.27024,-1.89723 -0.037,-1.44936 0.26116,-2.71968 1.42154,-3.70384 5.46966,-4.63673 10.65702,-9.60237 15.70861,-14.72083 4.28278,-4.33662 8.56638,-8.67129 12.85727,-12.99838 4.22065,-4.25609 8.1654,-8.78348 12.02535,-13.38885 4.15934,-4.96431 8.23949,-10.00243 12.35754,-15.00682 5.6501,-6.87056 10.83544,-14.10493 15.52947,-21.72972 5.28231,-8.57427 9.96179,-17.47734 13.37706,-27.08678 0.17659,-0.50055 0.36713,-0.99983 0.49601,-1.51589 0.10146,-0.41044 0.17416,-0.84525 0.16047,-1.26994 -0.0258,-0.96857 -0.5945,-1.51252 -1.50813,-1.47877 -0.35996,0.0128 -0.71366,0.10541 -1.06951,0.16866 -3.87576,0.69121 -7.63656,1.78878 -11.3437,3.08765 -8.19694,2.87413 -16.02537,6.59264 -23.69726,10.66227 -7.35713,3.90263 -14.2917,8.51823 -21.17921,13.20745 -4.15183,2.82412 -8.3166,5.6264 -12.414,8.53088 -3.7164,2.63571 -7.42687,5.29279 -11.00076,8.12524 -5.44831,4.31593 -10.77656,8.79116 -16.15745,13.19848 0.0117,0.0141 0.0223,0.0287 0.034,0.043 -1.23993,1.02693 -2.49305,2.03468 -3.71502,3.08352 -4.09842,3.52056 -8.16812,7.07624 -12.00979,10.89943 -0.79493,0.79201 -1.69333,1.15265 -2.76769,1.16553 -2.17603,0.0275 -2.68373,-0.94481 -2.87115,-2.47933 -0.14471,-1.1804 -0.26378,-2.36611 -0.33063,-3.55157 -0.12848,-2.28043 -0.50787,-4.5124 -1.24365,-6.68594 -1.14092,-3.36224 -3.44758,-5.26466 -6.77413,-5.85252 -0.5136,-0.0908 -1.02673,-0.10422 -1.54152,-0.11101 -0.77984,-0.009 -1.55913,0.0382 -2.33019,0.17568 z" />
  <path
     style="stroke-width:1.0175"
     id="path961"
     d="m 175.18204,224.22258 c 1.34912,-2.4814 8.95606,-13.65894 11.16522,-16.40671 l 0.89365,-1.11292 0.51226,1.75741 c 0.28229,0.96548 1.52716,5.21617 2.76698,9.4466 l 2.25365,7.69013 -3.19605,2.80114 -3.19516,2.80227 -5.52688,-3.1147 c -3.03965,-1.7125 -5.60732,-3.19632 -5.70505,-3.29626 -0.0977,-0.0999 -0.0838,-0.3555 0.0314,-0.56696 z" />
  <path
     style="stroke-width:1.0175"
     id="path963"
     d="m 231.67139,288.91227 c -1.28231,-3.29322 -2.3269,-6.03819 -2.31707,-6.09757 0.0109,-0.0603 1.66133,-1.70857 3.66929,-3.66344 l 3.65452,-3.55358 2.42914,1.14383 c 1.33614,0.62839 5.3341,2.44598 8.88409,4.03618 3.55187,1.59141 6.45006,2.9834 6.44435,3.0931 -0.0253,0.37097 -7.77223,4.96132 -13.43304,7.958 -6.06565,3.21135 -6.68521,3.50512 -6.87472,3.24445 -0.0682,-0.094 -1.17435,-2.86672 -2.45656,-6.16097 z" />
  <path
     id="path965"
     d="m 73.68,381.859 c -3.811,1.122 -6.376,1.171 -6.833,0.132 -1.139,-2.589 2.998,-14.003 8.879,-24.496 6.822,-12.17 17.224,-27.704 29.798,-44.496 8.722,-11.646 24.318,-31.166 24.765,-30.992 0.503,0.195 6.978,9.596 6.823,9.907 -0.064,0.126 -1.93,2.689 -4.146,5.696 -6.219,8.435 -9.784,14.212 -11.698,18.952 -1.607,3.982 -1.675,4.504 -0.829,6.428 1.79,4.073 4.275,4.629 9.782,2.189 9.933,-4.401 34.723,-25.537 66.702,-56.87 l 20.078,-20.872 6.9,7.86 v 0 0 c 0,0 -60.545,61.101 -82.848,80.01 -29.753,25.226 -55.587,43.076 -67.373,46.552 z" />
</svg>
