<?xml version="1.0" encoding="UTF-8" standalone="no"?>
<svg
   xmlns:dc="http://purl.org/dc/elements/1.1/"
   xmlns:cc="http://creativecommons.org/ns#"
   xmlns:rdf="http://www.w3.org/1999/02/22-rdf-syntax-ns#"
   xmlns:svg="http://www.w3.org/2000/svg"
   xmlns="http://www.w3.org/2000/svg"
   xmlns:sodipodi="http://sodipodi.sourceforge.net/DTD/sodipodi-0.dtd"
   xmlns:inkscape="http://www.inkscape.org/namespaces/inkscape"
   inkscape:version="1.0 (4035a4fb49, 2020-05-01)"
   sodipodi:docname="Imagen1blanco.svg"
   id="svg969"
   version="1.1"
   overflow="hidden"
   height="338.50958"
   width="320.45441">
  <metadata
     id="metadata973">
    <rdf:RDF>
      <cc:Work
         rdf:about="">
        <dc:format>image/svg+xml</dc:format>
        <dc:type
           rdf:resource="http://purl.org/dc/dcmitype/StillImage" />
        <dc:title></dc:title>
      </cc:Work>
    </rdf:RDF>
  </metadata>
  <sodipodi:namedview
     inkscape:current-layer="g967"
     inkscape:window-maximized="1"
     inkscape:window-y="-8"
     inkscape:window-x="-8"
     inkscape:cy="134.21241"
     inkscape:cx="284.29565"
     inkscape:zoom="1.6153846"
     showgrid="false"
     id="namedview971"
     inkscape:window-height="1017"
     inkscape:window-width="1920"
     inkscape:pageshadow="2"
     inkscape:pageopacity="0"
     guidetolerance="10"
     gridtolerance="10"
     objecttolerance="10"
     borderopacity="1"
     bordercolor="#666666"
     pagecolor="#ffffff"
     inkscape:document-rotation="0" />
  <defs
     id="defs951">
    <clipPath
       id="clip0">
      <rect
         id="rect948"
         height="455"
         width="455"
         y="115"
         x="169" />
    </clipPath>
  </defs>
  <g
     id="g967"
     transform="translate(-226.99121,-157.85924)"
     clip-path="url(#clip0)">
    <path
       style="fill:#ffffff;fill-opacity:1"
       id="path953"
       d="m 536.16533,464.01552 c -10.116,-18.454 -26.461,-42.739 -47.381,-70.426 -2.41,3.511 -5.024,6.884 -7.834,10.107 17.715,25.151 16.302,29.894 13.283,32.549 -3.444,3.027 -8.522,0.326 -15.599,-5.015 -1.648,-1.244 -3.444,-2.674 -5.382,-4.286 -5.038,-4.191 -11.044,-9.614 -17.935,-16.199 -19.49,-18.625 -44.022,-44.573 -69.075,-73.065 -25.053,-28.492 -47.648,-56.143 -63.626,-77.856 -1.141,-1.551 -2.227,-3.047 -3.284,-4.514 -0.122,-0.15 -0.238,-0.303 -0.333,-0.467 -6.016,-8.374 -10.633,-15.356 -13.716,-20.764 -4.392,-7.703 -6.422,-13.085 -2.978,-16.112 3.256,-2.865 7.991,-0.437 14.57,4.412 4.821,3.552 10.984,8.78 18.321,15.525 3.641,-2.416 7.409,-4.616 11.292,-6.581 -25.009,-24.52 -47.46,-44.279 -65.112,-57.284 -26.722,-19.69 -31.598,-15.903 -31.643,-15.863 -0.074,0.066 -7.028,7.152 28.061,60.268 23.936,36.237 59.266,81.382 99.483,127.118 40.215,45.738 80.469,86.555 113.345,114.931 48.191,41.607 56.108,35.604 56.18,35.54 0.046,-0.042 4.49,-4.417 -10.637,-32.018 z" />
    <path
       style="fill:#ffffff;fill-opacity:1;stroke-width:1.0175"
       id="path959"
       d="m 396.74607,276.21335 c -0.23514,0.0414 -0.46205,0.10118 -0.6929,0.15001 -1.89506,0.4009 -3.71528,1.03287 -5.45764,1.89599 -4.12701,2.04694 -18.42513,13.89548 -21.7359,17.09888 l 27.13343,47.12773 50.0329,35.89053 c 1.80533,-1.67073 7.79862,-14.61434 9.34776,-16.56259 1.55712,-1.95787 2.93092,-4.03436 3.98581,-6.31224 0.36455,-0.78856 0.69528,-1.60119 0.97657,-2.44252 0.49502,-1.47492 0.84334,-2.98066 0.82045,-4.56388 -0.004,-0.51214 -0.0507,-1.00135 -0.11779,-1.47589 -0.41118,-2.89283 -1.93508,-5.09333 -4.67983,-6.51313 -1.94341,-1.00432 -3.98362,-1.66643 -6.1011,-2.07285 -1.02679,-0.19596 -2.04397,-0.43884 -3.06174,-0.68594 -0.40534,-0.0985 -0.80774,-0.2372 -1.19328,-0.40448 -0.8056,-0.3514 -1.24806,-1.00472 -1.27023,-1.89722 -0.037,-1.44937 0.26116,-2.71968 1.42154,-3.70385 5.46966,-4.63672 10.65701,-9.60237 15.70861,-14.72083 4.28278,-4.33661 8.56637,-8.67128 12.85727,-12.99838 4.22064,-4.25609 8.1654,-8.78347 12.02535,-13.38885 4.15933,-4.96431 8.23948,-10.00242 12.35753,-15.00681 5.65011,-6.87056 10.83544,-14.10494 15.52947,-21.72973 5.28232,-8.57427 9.96179,-17.47734 13.37706,-27.08677 0.1766,-0.50056 0.36713,-0.99983 0.49602,-1.51589 0.10146,-0.41044 0.17416,-0.84526 0.16046,-1.26995 -0.0258,-0.96857 -0.5945,-1.51251 -1.50813,-1.47877 -0.35996,0.0128 -0.71366,0.10542 -1.06951,0.16866 -3.87576,0.69121 -7.63655,1.78878 -11.3437,3.08766 -8.19694,2.87412 -16.02537,6.59263 -23.69726,10.66226 -7.35713,3.90263 -14.29169,8.51824 -21.17921,13.20745 -4.15183,2.82412 -8.31659,5.6264 -12.41399,8.53088 -3.71641,2.63571 -7.42687,5.2928 -11.00077,8.12524 -5.44831,4.31593 -10.77656,8.79116 -16.15745,13.19848 0.0117,0.0141 0.0223,0.0287 0.034,0.043 -1.23993,1.02692 -2.49305,2.03468 -3.71502,3.08351 -4.09842,3.52056 -8.16812,7.07625 -12.00979,10.89944 -0.79493,0.792 -1.69333,1.15265 -2.76769,1.16552 -2.17602,0.0275 -2.68373,-0.9448 -2.87115,-2.47933 -0.14471,-1.18039 -0.26378,-2.36611 -0.33062,-3.55156 -0.12848,-2.28044 -0.50788,-4.51241 -1.24366,-6.68594 -1.14091,-3.36225 -3.44757,-5.26467 -6.77413,-5.85253 -0.51359,-0.0908 -1.02673,-0.10421 -1.54151,-0.11101 -0.77985,-0.009 -1.55914,0.0382 -2.3302,0.17568 z" />
    <path
       style="fill:#ffffff;fill-opacity:1;stroke-width:1.0175"
       id="path961"
       d="m 335.51537,333.0321 c 1.34912,-2.4814 8.95606,-13.65894 11.16522,-16.40671 l 0.89366,-1.11291 0.51225,1.7574 c 0.2823,0.96549 1.52717,5.21617 2.76699,9.44661 l 2.25364,7.69013 -3.19605,2.80113 -3.19515,2.80227 -5.52689,-3.1147 c -3.03964,-1.71249 -5.60732,-3.19632 -5.70505,-3.29625 -0.0977,-0.0999 -0.0838,-0.3555 0.0314,-0.56697 z" />
    <path
       style="fill:#ffffff;fill-opacity:1;stroke-width:1.0175"
       id="path963"
       d="m 392.00472,397.72179 c -1.28231,-3.29322 -2.3269,-6.03819 -2.31707,-6.09757 0.0109,-0.0603 1.66133,-1.70857 3.6693,-3.66344 l 3.65452,-3.55358 2.42913,1.14383 c 1.33614,0.62839 5.33411,2.44599 8.88409,4.03618 3.55187,1.59142 6.45006,2.9834 6.44435,3.09311 -0.0253,0.37096 -7.77222,4.96131 -13.43304,7.95799 -6.06565,3.21135 -6.68521,3.50512 -6.87472,3.24446 -0.0682,-0.094 -1.17434,-2.86673 -2.45656,-6.16098 z" />
    <path
       style="fill:#ffffff;fill-opacity:1"
       id="path965"
       d="m 234.01333,490.66852 c -3.811,1.122 -6.376,1.171 -6.833,0.132 -1.139,-2.589 2.998,-14.003 8.879,-24.496 6.822,-12.17 17.224,-27.704 29.798,-44.496 8.722,-11.646 24.318,-31.166 24.765,-30.992 0.503,0.195 6.978,9.596 6.823,9.907 -0.064,0.126 -1.93,2.689 -4.146,5.696 -6.219,8.435 -9.784,14.212 -11.698,18.952 -1.607,3.982 -1.675,4.504 -0.829,6.428 1.79,4.073 4.275,4.629 9.782,2.189 9.933,-4.401 34.723,-25.537 66.702,-56.87 l 20.078,-20.872 6.9,7.86 v 0 0 c 0,0 -60.545,61.101 -82.848,80.01 -29.753,25.226 -55.587,43.076 -67.373,46.552 z" />
  </g>
</svg>
